<svg xmlns="http://www.w3.org/2000/svg" width="48" height="48" viewBox="0 0 48 48">
  <g fill="none" fill-rule="evenodd">
    <path fill="#0E152B" fill-rule="nonzero" d="M12.7402381,20.2773333 L30.4002857,20.2773333 L30.4002857,4.79911111 L12.7402381,4.79911111 L12.7402381,20.2773333 Z M14.3959524,6.42577778 L28.7445714,6.42577778 L28.7445714,18.6497778 L14.3959524,18.6497778 L14.3959524,6.42577778 Z"/>
    <path fill="#0E152B" fill-rule="nonzero" d="M42.5177619,19.1902222 L40.868381,17.5697778 L37.9668095,14.7182222 L36.882,15.784 L38.6055714,17.4764444 L37.775,18.2906667 C37.4574286,18.6017778 37.5913333,19.2373333 38.0717619,19.7093333 L40.0296667,21.6346667 C40.34,21.9386667 40.7109524,22.0826667 41.0258095,22.0764444 L41.0258095,33.7297778 C41.0258095,34.8933333 40.1898095,35.8391111 39.1629048,35.8391111 C38.1350952,35.8391111 37.2990952,34.8933333 37.2990952,33.7297778 L37.2990952,25.2977778 L37.2990952,24.9608889 C37.265619,24.7893333 37.2059048,24.6524444 37.0919048,24.5395556 L34.4011429,21.8968889 L34.4011429,3.71466667 C34.4011429,1.92088889 32.9155238,0.461333333 31.0897143,0.461333333 L12.0499048,0.461333333 C10.2231905,0.461333333 8.73847619,1.92177778 8.73847619,3.71466667 L8.73847619,41.2373333 L5.01357143,41.2373333 L5.01357143,47.5395556 L38.1269524,47.5395556 L38.1269524,41.2373333 L34.4020476,41.2373333 L34.4020476,24.1973333 L35.643381,25.4177778 L35.643381,33.7306667 C35.643381,35.7893333 37.2221905,37.4666667 39.1629048,37.4666667 C41.103619,37.4666667 42.6815238,35.7893333 42.6815238,33.7306667 L42.6815238,20.7395556 L42.813619,20.6097778 C43.1320952,20.2977778 42.9990952,19.6631111 42.5177619,19.1902222 Z M36.4712381,42.864 L36.4712381,45.9128889 L6.66928571,45.9128889 L6.66928571,42.864 L10.3941905,42.864 L10.3941905,3.71466667 C10.3941905,2.81688889 11.137,2.088 12.0499048,2.088 L31.0897143,2.088 C32.002619,2.088 32.7454286,2.81688889 32.7454286,3.71466667 L32.7454286,42.864 L36.4712381,42.864 Z"/>
  </g>
</svg>
