<svg xmlns="http://www.w3.org/2000/svg" width="48" height="48" viewBox="0 0 48 48">
  <path fill="#0E152B" d="M37.4336 9.40273973L36.864 10.290411C36.6208 10.6717808 36.3712 11.0531507 36.1152 11.4213699 35.8336 9.24493151 33.9904 7.60109589 31.68 7.56821918L31.68 4.30684932C31.68 1.7490411 29.6576 0 27.168 0L21.472 0C18.9824 0 16.96 1.7490411 16.96 4.30684932L16.96 7.57479452C14.4704 7.69315068 12.48 9.63945205 12.48 12.019726L12.48 31.2526027C10.0416 32.429589 8.4864 32.9687671 8.4352 32.9884932L8 33.139726 8 38.1369863 11.84 38.1369863 11.84 35.5594521C12.0576 35.4739726 12.2688 35.3819178 12.48 35.2964384L12.48 38.1369863 36.16 38.1369863 36.16 17.4115068C38.1696 14.8734247 39.1424 13.1638356 39.168 13.1112329L39.3472 12.7824658 37.4336 9.40273973zM18.24 4.30684932C18.24 2.47890411 19.6928 1.31506849 21.472 1.31506849L27.168 1.31506849C28.9472 1.31506849 30.4 2.47890411 30.4 4.30684932L30.4 8.18630137C30.4 8.4230137 30.3744 8.81753425 30.3296 9.04109589 30.016 10.540274 28.7168 11.8356164 27.168 11.8356164L21.472 11.8356164C19.9232 11.8356164 18.624 10.540274 18.3104 9.04109589 18.2656 8.81753425 18.24 8.4230137 18.24 8.18630137L18.24 4.30684932zM13.76 12.019726C13.76 10.349589 15.2064 9.13972603 17.0176 9.04767123 17.3376 11.2767123 19.2128 13.1506849 21.472 13.1506849L27.168 13.1506849C29.4272 13.1506849 31.3024 11.270137 31.6224 9.04109589 33.4528 9.05424658 34.88 10.2706849 34.88 12.019726L34.88 13.170411C28.1344 22.2641096 19.3152 27.7939726 13.76 30.6279452L13.76 12.019726zM34.88 36.8219178L13.76 36.8219178 13.76 34.7441096C23.9744 30.1873973 30.8736 23.6580822 34.88 18.969863L34.88 36.8219178zM36.16 15.2876712C35.7888 15.7873973 35.3664 16.3463014 34.88 16.9446575 31.2384 21.4684932 24.3712 28.4580822 13.76 33.3041096 13.344 33.4947945 12.9152 33.6854795 12.48 33.869589 11.9872 34.0865753 11.4816 34.290411 10.9696 34.4942466L10.56 34.6586301 10.56 36.8219178 9.28 36.8219178 9.28 34.08C9.856 33.8564384 10.976 33.4093151 12.48 32.7057534 12.8768 32.5150685 13.3056 32.3112329 13.76 32.0810959 19.136 29.4115068 27.9168 24.0920548 34.88 15.2810959 35.3216 14.7353425 35.7504 14.1764384 36.16 13.6043836 36.576 13.0454795 36.9728 12.4734247 37.3632 11.8882192L37.8688 12.7758904C37.6 13.2164384 37.0304 14.1041096 36.16 15.2876712zM35.63648 48L12.40704 48C10.01792 48 8 45.398137 8 42.7075068L8 39.4520548 40 39.4520548 40 42.7075068C40 45.398137 38.00192 48 35.63648 48zM9.28 40.7671233L9.28 42.7075068C9.28 44.4328767 10.56384 46.6849315 12.40704 46.6849315L35.63648 46.6849315C37.48096 46.6849315 38.72 44.4696986 38.72 42.7075068L38.72 40.7671233 9.28 40.7671233z"/>
</svg>
