<svg xmlns="http://www.w3.org/2000/svg" width="48" height="48" viewBox="0 0 48 48">
  <path fill="#0E152B" d="M41.6156256,0 C38.3036251,0 35.6156251,2.56 35.6156251,5.71428571 C35.6156251,7.58857143 36.5763749,9.27982126 38.0643749,10.3312498 L29.6643749,26.9714286 L22.5121877,26.9714286 C21.9361877,26.9714286 21.456,27.3371429 21.36,27.8857143 L20.1121877,33.0973216 L13.2478123,33.0973216 C12.6718123,33.0973216 12.1916251,33.4630359 12.0956251,34.0116073 L10.8478123,39.2232142 L3.45562512,39.2232142 C2.92762512,39.2232142 2.44837488,39.5426784 2.30437488,40.0455355 L0.38437488,46.1258926 C0.28837488,46.4916069 0.33562512,46.8569646 0.57562512,47.1312503 C0.81562512,47.405536 1.15162512,47.5883931 1.53562512,47.5883931 L43.2956256,47.5883931 C43.9676256,47.5883931 44.4956256,47.085536 44.4956256,46.445536 C44.4956256,46.3541074 44.0156256,44.2359526 43.0556256,40.0910715 C42.9116256,39.5882144 42.4323744,39.1767858 41.9043744,39.1767858 L41.28,39.1767858 L40.0321877,33.9660713 C39.8881877,33.4632142 39.408,33.0517856 38.88,33.0517856 L37.7756251,33.0517856 L36.48,27.8401787 C36.336,27.3373216 35.8558123,26.925893 35.3278123,26.925893 L32.3043749,26.925893 L40.2721877,11.2455355 C40.7041877,11.3369641 41.1843749,11.3830359 41.6643744,11.3830359 C44.9763744,11.3830359 47.6643744,8.82303589 47.6643744,5.66875017 C47.6643744,2.51446446 44.9276256,0 41.6156256,0 Z M41.6500003,2 C43.7546668,2 45.5,3.66222211 45.5,5.66666642 C45.5,7.67111073 43.8060001,9.33333284 41.6500003,9.33333284 C39.5453332,9.33333284 37.8,7.67111073 37.8,5.66666642 C37.8,3.66222211 39.5453332,2 41.6500003,2 Z M22.9004934,28.6972537 L34.829969,28.6972537 L35.9707627,33.0517856 L21.9895261,33.0517856 L22.9004934,28.6972537 Z M13.6284832,34.8055027 L38.3036831,34.8055027 L39.4077358,39.1767858 L12.6908325,39.1767858 L13.6284832,34.8055027 Z M4.00808542,41.0402605 L41.1920173,41.0402605 L42.3976939,45.7476629 L2.38483872,45.7476629 L4.00808542,41.0402605 Z"/>
</svg>
